PathFileType  4	(X/Y/Z) C:\Users\wagnerel85475\Documents\Thesis\opencap-core\Data\3375ffbc-daeb-4a43-b4f7-ac9899cd4c71\MarkerData\PreAugmentation
DataRate	CameraRate	NumFrames	NumMarkers	Units	OrigDataRate	OrigDataStartFrame	OrigNumFrames
60.0	60.0	19	20	m	60.0	293	584
Frame#	Time	Neck			RShoulder			RElbow			RWrist			LShoulder			LElbow			LWrist			midHip			RHip			RKnee			RAnkle			LHip			LKnee			LAnkle			LBigToe			LSmallToe			LHeel			RBigToe			RSmallToe			RHeel			
		X1	Y1	Z1	X2	Y2	Z2	X3	Y3	Z3	X4	Y4	Z4	X5	Y5	Z5	X6	Y6	Z6	X7	Y7	Z7	X8	Y8	Z8	X9	Y9	Z9	X10	Y10	Z10	X11	Y11	Z11	X12	Y12	Z12	X13	Y13	Z13	X14	Y14	Z14	X15	Y15	Z15	X16	Y16	Z16	X17	Y17	Z17	X18	Y18	Z18	X19	Y19	Z19	X20	Y20	Z20	

293	4.8666667	0.2806200	1.7986200	-0.1780300	0.2790300	1.8119600	0.0091200	0.2235600	1.5188000	0.1044300	0.2959500	1.2311400	0.1591200	0.2635300	1.7929600	-0.3606700	0.1832700	1.4960600	-0.4153400	0.2169800	1.1883400	-0.4275800	0.2663000	1.2616400	-0.1536200	0.2858400	1.2704500	-0.0278400	0.2264200	0.7722000	-0.0464700	0.1776700	0.2567700	-0.0231100	0.2627300	1.2482300	-0.2682600	0.2103200	0.7878900	-0.2088600	0.1920100	0.2540900	-0.2034600	0.4381400	0.2078900	-0.2230000	0.3957800	0.2029600	-0.2545700	0.0999600	0.1938000	-0.2015900	0.4235600	0.1954100	-0.0160000	0.3731300	0.1998700	0.0132200	0.1151800	0.2115600	-0.0372200
294	4.8833333	0.2744200	1.7991700	-0.1802700	0.2733300	1.8124200	0.0066200	0.2289400	1.5183600	0.1018800	0.2959900	1.2329700	0.1591500	0.2639900	1.7929600	-0.3652900	0.1813400	1.4952900	-0.4162600	0.2257200	1.1904900	-0.4303900	0.2671700	1.2635400	-0.1536900	0.2858500	1.2702300	-0.0279600	0.2260800	0.7787400	-0.0516300	0.1778200	0.2565100	-0.0233400	0.2500300	1.2478600	-0.2725900	0.2088800	0.7850600	-0.2088900	0.1913600	0.2538100	-0.2033500	0.4432200	0.2092800	-0.2255100	0.3956400	0.2053800	-0.2548700	0.1055200	0.1948300	-0.1995400	0.4256600	0.1957300	-0.0166300	0.3795300	0.2012800	0.0107600	0.1222500	0.2131000	-0.0356000
295	4.9000000	0.2742600	1.7989000	-0.1804600	0.2782400	1.8118800	0.0042500	0.2292200	1.5185000	0.1016400	0.2961100	1.2331200	0.1589900	0.2699300	1.7922100	-0.3679400	0.1771100	1.4915600	-0.4180600	0.2175700	1.1929500	-0.4325800	0.2671200	1.2590100	-0.1536700	0.2857000	1.2658000	-0.0326500	0.2324800	0.7751000	-0.0492400	0.1777200	0.2569600	-0.0230700	0.2502400	1.2503800	-0.2732200	0.2105600	0.7858900	-0.2088200	0.1920900	0.2565600	-0.2037400	0.4381500	0.2078400	-0.2230000	0.3957400	0.2056000	-0.2501800	0.1065100	0.1975200	-0.1990000	0.4173300	0.1958500	-0.0182700	0.3728300	0.2014100	0.0129900	0.1211400	0.2156100	-0.0346900
296	4.9166667	0.2680000	1.7995000	-0.1827300	0.2791300	1.8117600	0.0038600	0.2221500	1.5186900	0.0998200	0.2960000	1.2329700	0.1590700	0.2704200	1.7922300	-0.3724800	0.1879800	1.4969800	-0.4185900	0.2265700	1.1969400	-0.4353400	0.2672200	1.2611500	-0.1585900	0.2792300	1.2655200	-0.0349900	0.2330900	0.7701100	-0.0493700	0.1778300	0.2565100	-0.0233300	0.2560900	1.2526300	-0.2751000	0.2102900	0.7791700	-0.2084500	0.1913900	0.2562400	-0.2036200	0.4432800	0.2092200	-0.2255100	0.4015000	0.2086300	-0.2523000	0.1053100	0.1970000	-0.1993100	0.4257100	0.1976300	-0.0168900	0.3792400	0.2029000	0.0105500	0.1213300	0.2156100	-0.0352500
297	4.9333333	0.2608900	1.8001000	-0.1900600	0.2773800	1.8121900	-0.0006500	0.2224400	1.5188900	0.0995000	0.2949700	1.2331100	0.1542500	0.2701500	1.7920800	-0.3728800	0.1771700	1.4960200	-0.4231000	0.2248200	1.1974000	-0.4399300	0.2660900	1.2638000	-0.1586400	0.2787900	1.2680700	-0.0349300	0.2334000	0.7707400	-0.0441500	0.1776900	0.2568800	-0.0230700	0.2495500	1.2551700	-0.2781900	0.2037300	0.7804100	-0.2113700	0.1918500	0.2587100	-0.2035100	0.4440300	0.2091900	-0.2254200	0.3956700	0.2055600	-0.2548800	0.0998700	0.1960300	-0.2013200	0.4236200	0.1948800	-0.0165200	0.3728800	0.2014200	0.0130100	0.1211000	0.2155400	-0.0346900
298	4.9500000	0.2543500	1.7987500	-0.1925000	0.2716300	1.8127200	-0.0030800	0.2209700	1.5187500	0.0949600	0.2948600	1.2329200	0.1543300	0.2703000	1.7899300	-0.3776000	0.1695400	1.4910800	-0.4264700	0.2210800	1.1926000	-0.4479200	0.2724500	1.2639700	-0.1613100	0.2779300	1.2702400	-0.0399700	0.2461100	0.7764500	-0.0497400	0.1766700	0.2587900	-0.0229900	0.2554800	1.2553200	-0.2801300	0.2023700	0.7840700	-0.2115600	0.1911400	0.2584500	-0.2033900	0.4374700	0.2077200	-0.2231000	0.3956500	0.2072600	-0.2546200	0.1051700	0.2016500	-0.1993200	0.4204400	0.1982500	-0.0145400	0.3619000	0.2003400	0.0184300	0.1213100	0.2156400	-0.0352700
299	4.9666667	0.2475400	1.8021000	-0.1951900	0.2704900	1.8157100	-0.0030000	0.2143400	1.5193300	0.0926400	0.3006300	1.2331800	0.1513600	0.2640000	1.7904300	-0.3804700	0.1648000	1.4947500	-0.4335200	0.2131000	1.1934700	-0.4551800	0.2649700	1.2666500	-0.1635900	0.2774400	1.2729200	-0.0398900	0.2644400	0.7787200	-0.0530300	0.1777300	0.2568700	-0.0230400	0.2548700	1.2604400	-0.2807800	0.2039000	0.7824900	-0.2113700	0.1857300	0.2551900	-0.2011700	0.4380800	0.2078100	-0.2230200	0.3895400	0.2085000	-0.2572800	0.1066200	0.2001100	-0.1991900	0.4237900	0.1968400	-0.0167800	0.3669300	0.2017600	0.0155100	0.1169600	0.2136700	-0.0326700
300	4.9833333	0.2413800	1.8029800	-0.1974800	0.2705700	1.8153600	-0.0081500	0.2129300	1.5192600	0.0880200	0.3003800	1.2374100	0.1513800	0.2580400	1.7910600	-0.3828500	0.1642300	1.4982000	-0.4389100	0.2152200	1.1997200	-0.4556600	0.2657200	1.2665100	-0.1636500	0.2774700	1.2727500	-0.0400300	0.2777700	0.7796900	-0.0537200	0.1845500	0.2579300	-0.0212000	0.2486900	1.2603300	-0.2826900	0.2090800	0.7857600	-0.2137700	0.1858300	0.2551900	-0.2015800	0.4374300	0.2078200	-0.2231200	0.3956100	0.2098800	-0.2549000	0.1057300	0.1975100	-0.1998300	0.4261000	0.1976800	-0.0168800	0.3736600	0.2014700	0.0132300	0.1085600	0.2125400	-0.0296800
301	5.0000000	0.2537200	1.7992900	-0.2024200	0.2873400	1.8135800	-0.0159000	0.2132600	1.5194600	0.0877100	0.2937100	1.2375200	0.1493200	0.2518000	1.7916500	-0.3905600	0.1726000	1.4992200	-0.4457300	0.2331700	1.2006400	-0.4621400	0.2650900	1.2687400	-0.1635900	0.2775600	1.2750600	-0.0398700	0.2965600	0.7845200	-0.0517300	0.1835600	0.2556300	-0.0205800	0.2426900	1.2554600	-0.2807400	0.2113600	0.7899500	-0.2138100	0.1926800	0.2543300	-0.1991400	0.4321200	0.2064800	-0.2205400	0.4014200	0.2087600	-0.2523800	0.1070400	0.1980300	-0.1994500	0.4232600	0.1972600	-0.0162200	0.3790500	0.2029300	0.0150500	0.1153400	0.2139100	-0.0269200
302	5.0166667	0.2537500	1.7993600	-0.2024300	0.2880400	1.8130600	-0.0163100	0.2118100	1.5193300	0.0830900	0.2924900	1.2373300	0.1446200	0.2457500	1.7923600	-0.3929200	0.1844700	1.5023300	-0.4510800	0.2480000	1.2054000	-0.4671300	0.2661800	1.2661200	-0.1636500	0.2779300	1.2724600	-0.0400400	0.3101300	0.7815400	-0.0475500	0.1847200	0.2578200	-0.0211400	0.2493100	1.2574800	-0.2826500	0.2099000	0.7890600	-0.2185900	0.1919500	0.2538700	-0.1989900	0.4314300	0.2065400	-0.2206500	0.3957100	0.2098300	-0.2548900	0.1056400	0.1948400	-0.1995200	0.4263700	0.1996200	-0.0171100	0.3741400	0.2032400	0.0177100	0.1227800	0.2154500	-0.0253900
303	5.0333333	0.2597000	1.7985400	-0.2099100	0.2922400	1.8123700	-0.0234700	0.2049000	1.5225100	0.0806300	0.2983600	1.2376000	0.1416400	0.2398900	1.7906600	-0.3956500	0.1796500	1.5033700	-0.4531200	0.2529800	1.2031800	-0.4690400	0.2650500	1.2687500	-0.1636300	0.2710600	1.2750700	-0.0420800	0.3158900	0.7870500	-0.0498300	0.1904500	0.2573400	-0.0184200	0.2485400	1.2604400	-0.2832600	0.2048200	0.7799200	-0.2161500	0.1933700	0.2520900	-0.1994000	0.4320600	0.2066200	-0.2205400	0.4015600	0.2068600	-0.2526000	0.1010400	0.1944100	-0.1971600	0.4232400	0.1992300	-0.0164700	0.3732300	0.2032700	0.0175300	0.1289300	0.2125800	-0.0274900
304	5.0500000	0.2720100	1.7970300	-0.2148700	0.2931300	1.8120700	-0.0238700	0.2096200	1.5221500	0.0732400	0.3038900	1.2374600	0.1389000	0.2458300	1.7903500	-0.3980400	0.1843900	1.5003200	-0.4563300	0.2552000	1.2052300	-0.4744000	0.2656000	1.2686400	-0.1685800	0.2770500	1.2749600	-0.0449500	0.3167200	0.7940500	-0.0499500	0.1972900	0.2632200	-0.0165800	0.2488600	1.2577800	-0.2827500	0.2034200	0.7800200	-0.2160900	0.1919300	0.2538500	-0.1990000	0.4314300	0.2066400	-0.2206400	0.4017100	0.2087400	-0.2522700	0.0992500	0.1957200	-0.1972500	0.4207200	0.2026100	-0.0144700	0.3627900	0.2022400	0.0228800	0.1417700	0.2228200	-0.0284600
305	5.0666667	0.2716400	1.7948700	-0.2151100	0.2856200	1.8129900	-0.0257100	0.2158600	1.5220700	0.0701100	0.3029600	1.2376900	0.1340200	0.2459000	1.7881700	-0.4033100	0.1862900	1.4940500	-0.4556300	0.2663400	1.2065600	-0.4786300	0.2646100	1.2712200	-0.1685700	0.2827400	1.2776100	-0.0474900	0.3159100	0.7849800	-0.0499200	0.1956800	0.2680100	-0.0156800	0.2487600	1.2579100	-0.2881800	0.2034700	0.7917300	-0.2214500	0.1862800	0.2527900	-0.2014300	0.4320200	0.2066300	-0.2205800	0.3955000	0.2054000	-0.2549600	0.1002300	0.1938600	-0.1965500	0.4172600	0.2022000	-0.0138300	0.3672700	0.2062500	0.0202800	0.1286900	0.2243500	-0.0222400
306	5.0833333	0.2654200	1.7953600	-0.2174400	0.2798400	1.8134700	-0.0282200	0.2214200	1.5215900	0.0675700	0.3029600	1.2396200	0.1340600	0.2520900	1.7854700	-0.4055000	0.1786800	1.4911100	-0.4589500	0.2687600	1.2077500	-0.4838000	0.2655300	1.2686200	-0.1686700	0.2761900	1.2774100	-0.0499000	0.3288100	0.7882900	-0.0507500	0.2093400	0.2751200	-0.0117300	0.2493300	1.2528400	-0.2876400	0.2039500	0.7858600	-0.2210000	0.1849900	0.2547100	-0.2010300	0.4259100	0.2073800	-0.2227600	0.3779700	0.2030400	-0.2616300	0.1052900	0.1991600	-0.1990600	0.4142300	0.2061800	-0.0160100	0.3736500	0.2058900	0.0132400	0.1358200	0.2305800	-0.0207500
307	5.1000000	0.2589100	1.7959200	-0.2199500	0.2715100	1.8146500	-0.0349000	0.2147600	1.5247800	0.0651200	0.3032500	1.2398700	0.1339300	0.2459400	1.7860100	-0.4083900	0.1866400	1.4916000	-0.4606200	0.2802800	1.2059300	-0.4879100	0.2582600	1.2686800	-0.1709500	0.2822500	1.2751600	-0.0524100	0.3403900	0.7877300	-0.0511500	0.2092400	0.2801200	-0.0114700	0.2364400	1.2528400	-0.2931600	0.2178300	0.7916200	-0.2213800	0.1855800	0.2573500	-0.2009300	0.4211600	0.2085300	-0.2295300	0.3655800	0.2022500	-0.2662800	0.1065900	0.2045200	-0.1937200	0.3984700	0.2112700	-0.0153300	0.3549600	0.2143000	0.0206600	0.1495900	0.2425200	-0.0263200
308	5.1166667	0.2651400	1.7951200	-0.2223700	0.2655700	1.8177000	-0.0376200	0.2145700	1.5265400	0.0653700	0.3084000	1.2420500	0.1312300	0.2587900	1.7847200	-0.4127000	0.1853800	1.4909100	-0.4612800	0.2891700	1.2076200	-0.4953000	0.2590400	1.2685900	-0.1710300	0.2688500	1.2773700	-0.0570400	0.3540300	0.7953700	-0.0471300	0.2092800	0.2843900	-0.0118000	0.2366700	1.2527200	-0.2876700	0.2230000	0.7946500	-0.2188400	0.1847000	0.2569300	-0.2007700	0.4259900	0.2075900	-0.2274800	0.3718800	0.2040600	-0.2642500	0.0984800	0.2000700	-0.1967400	0.4078500	0.2135700	-0.0181200	0.3677400	0.2133400	0.0159100	0.1435700	0.2411300	-0.0242100
309	5.1333333	0.2586200	1.7957300	-0.2249000	0.2705800	1.8174100	-0.0399800	0.2148900	1.5267700	0.0650100	0.3017800	1.2422500	0.1291300	0.2651300	1.7838300	-0.4152600	0.1872200	1.4939600	-0.4655100	0.2880600	1.2058100	-0.4998900	0.2578400	1.2665700	-0.1758600	0.2688200	1.2774700	-0.0569000	0.3835900	0.8016200	-0.0504800	0.2224900	0.2897700	-0.0123500	0.2424100	1.2530900	-0.2906700	0.2181900	0.7940400	-0.2164100	0.1859100	0.2550100	-0.2011900	0.4266300	0.2074600	-0.2274000	0.3655000	0.2001300	-0.2617900	0.0999100	0.2007500	-0.1962900	0.4040900	0.2130000	-0.0174900	0.3786500	0.2161700	0.0150700	0.1563100	0.2488500	-0.0242000
310	5.1500000	0.2459500	1.7971300	-0.2297000	0.2647600	1.8178800	-0.0424700	0.2144900	1.5265500	0.0652700	0.3017300	1.2442300	0.1292100	0.2593800	1.7820600	-0.4175200	0.1924900	1.4908400	-0.4684600	0.2896600	1.2077600	-0.5003500	0.2583500	1.2689100	-0.1760100	0.2689000	1.2773700	-0.0571100	0.4078400	0.8057100	-0.0565600	0.2232600	0.2967200	-0.0129500	0.2361300	1.2553800	-0.2927200	0.2219600	0.7994600	-0.2240300	0.1914200	0.2560700	-0.2036100	0.4374600	0.2079700	-0.2278400	0.3721300	0.1996500	-0.2642100	0.0984900	0.1976200	-0.1965300	0.4143300	0.2149800	-0.0160500	0.3802800	0.2184300	0.0154800	0.1556300	0.2561800	-0.0245400
311	5.1666667	0.2455200	1.7972500	-0.2346100	0.2700600	1.8149100	-0.0446700	0.2139300	1.5268400	0.0601700	0.3017200	1.2468000	0.1290600	0.2596100	1.7818900	-0.4226300	0.1883700	1.4917500	-0.4754000	0.2824100	1.2129400	-0.5076800	0.2574800	1.2665500	-0.1808200	0.2681700	1.2774900	-0.0618000	0.4071600	0.8146400	-0.0564200	0.2241400	0.2998600	-0.0129600	0.2424900	1.2531000	-0.2956800	0.2118100	0.7921700	-0.2237300	0.1923300	0.2565600	-0.2037500	0.4378000	0.2056800	-0.2279800	0.3775600	0.2036100	-0.2623300	0.1067100	0.1976000	-0.1988500	0.4107500	0.2187800	-0.0112100	0.3798400	0.2248700	0.0240800	0.1608800	0.2647900	-0.0263900
